<?xml version="1.0" encoding="UTF-8"?>
<!DOCTYPE svg PUBLIC "-//W3C//DTD SVG 1.0//EN" "http://www.w3.org/TR/2001/REC-SVG-20010904/DTD/svg10.dtd">
<!-- Creator: CorelDRAW (Versão OEM) -->
<svg xmlns="http://www.w3.org/2000/svg" xml:space="preserve" width="149.37mm" height="40.4758mm" version="1.0" style="shape-rendering:geometricPrecision; text-rendering:geometricPrecision; image-rendering:optimizeQuality; fill-rule:evenodd; clip-rule:evenodd"
viewBox="0 0 14923 4044"
 xmlns:xlink="http://www.w3.org/1999/xlink"
 xmlns:xodm="http://www.corel.com/coreldraw/odm/2003">
 <defs>
  <style type="text/css">
   <![CDATA[
    .fil0 {fill:#373435}
   ]]>
  </style>
 </defs>
 <g id="Camada_x0020_1">
  <metadata id="CorelCorpID_0Corel-Layer"/>
  <path class="fil0" d="M14673 1445c78,0 141,63 141,141 0,78 -63,141 -141,141 -78,0 -141,-63 -141,-141 0,-78 63,-141 141,-141zm0 21c-66,0 -119,54 -119,120 0,66 53,119 119,119 66,0 120,-53 120,-119 0,-66 -54,-120 -120,-120zm-22 132l0 46c0,6 -1,12 -5,16 -3,4 -8,5 -13,5 -5,0 -10,-2 -13,-6 -4,-4 -5,-10 -5,-15l0 -116c0,-6 1,-12 5,-16 4,-4 10,-5 16,-5l50 0c6,0 12,0 18,1 5,1 10,2 14,4 5,2 10,5 13,9 4,4 7,9 9,14 2,5 3,11 3,16 0,11 -3,21 -10,29 -6,7 -15,11 -24,14 4,3 8,6 11,10 5,6 10,12 13,18 3,6 7,11 9,17 1,3 3,8 3,12 0,3 -1,5 -2,7 -1,2 -4,4 -6,6 -3,1 -6,2 -9,2 -4,0 -7,-1 -10,-3 -3,-2 -5,-4 -7,-7 -2,-4 -5,-7 -7,-11l-12 -20c-3,-6 -7,-12 -12,-17 -3,-3 -6,-6 -10,-7 -4,-2 -8,-2 -12,-2l-8 0zm0 -63l0 36 25 0c6,0 12,0 18,-2 4,-1 8,-3 10,-6 3,-3 3,-7 3,-11 0,-4 -1,-7 -3,-10 -2,-3 -5,-5 -8,-6 -5,-2 -15,-2 -20,-2l-26 0zm-5534 -56l-73 445c-3,19 -19,32 -38,32l-387 0c-16,0 -30,12 -33,28l-242 1469c-3,19 -19,32 -38,32l-502 0c-12,0 -22,-5 -29,-13 -7,-9 -10,-19 -9,-31l239 -1446c2,-10 -1,-19 -7,-27 -7,-8 -15,-12 -25,-12l-362 0c-12,0 -22,-5 -29,-13 -7,-9 -10,-20 -8,-31l75 -445c3,-18 19,-32 38,-32l1392 0c12,0 22,5 29,13 7,9 10,19 9,31zm-1642 0l-324 1971c-3,18 -19,32 -37,32l-445 3c-20,0 -37,-15 -38,-35l-1 -14c-1,-12 -8,-23 -19,-28 -11,-5 -24,-4 -34,4 -114,87 -247,124 -390,124 -66,0 -133,-10 -194,-36 -57,-24 -107,-59 -147,-106 -44,-50 -73,-110 -93,-173 -24,-76 -32,-157 -32,-236 0,-252 55,-502 221,-697 144,-169 325,-259 548,-259 102,0 197,26 275,93 9,8 21,10 33,6 12,-4 19,-14 21,-26l105 -635c3,-19 19,-32 38,-32l477 0c12,0 22,5 29,13 7,9 10,19 9,31zm-1181 1372c0,109 38,191 158,191 95,0 169,-44 227,-118 4,-5 6,-9 7,-15l47 -295c1,-8 0,-15 -4,-22 -34,-58 -86,-85 -153,-85 -84,0 -152,31 -204,97 -57,71 -77,158 -77,247zm-644 -4c-4,17 -19,30 -37,30l-744 0c-21,0 -36,18 -33,39 21,121 110,147 219,147 127,0 255,-21 370,-78 10,-5 22,-5 32,-1 11,5 18,13 21,24l100 340c5,17 -2,35 -18,44 -190,105 -407,142 -622,142 -167,0 -337,-33 -471,-138 -136,-106 -177,-271 -177,-437 0,-251 71,-480 243,-666 172,-187 394,-266 646,-266 517,1 565,412 472,820zm-566 -408c-86,0 -144,52 -184,125 -6,11 -6,22 1,33 6,10 16,16 28,16l231 0c18,0 33,-15 33,-33 0,-77 -21,-141 -109,-141zm-281 -961l-73 445c-3,19 -19,32 -38,32l-387 0c-16,0 -30,12 -33,28l-242 1469c-3,19 -19,32 -38,32l-502 0c-12,0 -22,-5 -29,-13 -7,-9 -10,-19 -9,-31l239 -1446c2,-10 -1,-19 -7,-27 -7,-8 -15,-12 -25,-12l-362 0c-12,0 -22,-5 -29,-13 -7,-9 -10,-19 -8,-31l75 -445c3,-18 19,-32 38,-32l1392 0c12,0 22,5 29,13 7,9 10,19 9,31zm5791 474l-778 0c-16,0 -30,12 -33,28l-27 175c-2,10 1,19 8,26 7,8 15,11 25,11l533 0c12,0 22,5 29,13 7,9 10,19 8,31l-65 389c-3,18 -19,32 -38,32l-559 0c-16,0 -30,12 -33,28l-38 234c-2,10 1,19 7,27 7,8 15,12 25,12l756 0c12,0 22,5 29,13 7,9 10,19 8,31l-76 448c-3,18 -19,32 -38,32l-1339 0c-12,0 -22,-5 -29,-13 -7,-9 -10,-19 -9,-31l325 -1974c3,-19 19,-32 38,-32l1339 0c12,0 21,5 29,13 7,9 10,19 9,31l-70 442c-3,19 -19,32 -38,32zm915 1581c-111,0 -223,-14 -329,-48 -101,-32 -193,-83 -275,-151 -92,-75 -154,-177 -196,-288 -53,-138 -70,-291 -70,-438 0,-148 25,-293 74,-433 51,-143 125,-274 220,-393 103,-129 238,-223 388,-291 174,-78 363,-109 553,-109 240,0 487,49 673,211 15,13 17,34 6,50l-297 424c-7,9 -16,15 -28,16 -11,1 -22,-3 -30,-11 -101,-99 -228,-138 -369,-138 -167,0 -308,56 -417,184 -109,129 -155,282 -155,450 0,256 116,400 378,400 183,0 347,-54 487,-172 10,-9 23,-11 36,-7 13,4 22,14 25,27l115 450c4,15 -1,29 -13,39 -96,77 -215,128 -333,162 -144,42 -293,65 -444,65zm2411 -2100l501 0c12,0 22,5 29,13 7,9 10,19 9,31l-326 1974c-3,19 -19,32 -38,32l-500 0c-12,0 -22,-5 -29,-13 -7,-9 -10,-19 -9,-31l115 -701c2,-10 -1,-19 -7,-27 -7,-8 -15,-12 -25,-12l-462 0c-1,0 -2,0 -3,0l-217 0c-8,0 -15,6 -16,14 -1,8 3,15 11,18l150 47c33,10 31,17 26,50l-103 623c-3,19 -19,32 -38,32l-502 0c-12,0 -22,-5 -29,-13 -7,-9 -10,-19 -9,-31l328 -1974c3,-19 19,-32 38,-32l501 0c12,0 22,5 29,13 7,9 10,20 8,31l-111 656c-2,10 1,19 7,27 7,8 15,12 25,12l462 0c16,0 30,-12 33,-28l113 -680c3,-18 19,-32 38,-32zm-10959 -1244l-1242 1203c-33,32 -80,48 -124,31 -42,-17 -61,-58 -53,-101l41 -238c10,-56 -28,-102 -85,-102l-870 0c-31,0 -57,-11 -75,-37l-538 -755c-25,-35 -20,-80 2,-116 23,-38 64,-63 109,-63l2783 0c42,0 76,22 87,63 12,42 -5,85 -36,115zm-437 2229l-1184 1034c-49,43 -150,158 -123,1l270 -1575c4,-24 16,-44 33,-62l1832 -1785c21,-21 48,-33 78,-33l1464 0c37,0 66,19 77,55 11,37 -4,75 -30,101l-792 796c-21,22 -49,35 -79,35l-1064 0c-60,0 -100,42 -110,100l-179 1042c-18,107 -114,221 -194,291zm10801 1509l1089 -135c59,-7 90,-47 110,-100l276 -741c37,-138 144,-151 116,11l-168 977c-10,60 -53,104 -115,104l-1315 0c-113,0 -112,-101 5,-115z"/>
 </g>
</svg>
